<?xml version="1.0" encoding="iso-8859-1"?>
<!-- Generator: Adobe Illustrator 19.0.0, SVG Export Plug-In . SVG Version: 6.00 Build 0)  -->
<svg version="1.1" id="Layer_1" xmlns="http://www.w3.org/2000/svg" xmlns:xlink="http://www.w3.org/1999/xlink" x="0px" y="0px"
	 viewBox="0 0 512 512" style="enable-background:new 0 0 512 512;" xml:space="preserve">
<g>
	<g>
		<path d="M440.661,43.469c-3.909-3.916-10.253-3.921-14.168-0.013c-3.916,3.909-3.921,10.252-0.013,14.168
			c11.464,11.485,11.463,30.172-0.001,41.656c-3.909,3.916-3.904,10.259,0.012,14.168c1.956,1.953,4.516,2.928,7.078,2.928
			c2.567,0,5.133-0.981,7.09-2.941C459.915,94.146,459.916,62.759,440.661,43.469z"/>
	</g>
</g>
<g>
	<g>
		<path d="M417.098,122.292c-4.073-3.745-10.41-3.479-14.155,0.595l-0.401,0.437c-3.745,4.074-3.478,10.41,0.595,14.155
			c1.925,1.769,4.354,2.643,6.778,2.643c2.705,0,5.402-1.089,7.378-3.238l0.401-0.437
			C421.439,132.374,421.172,126.037,417.098,122.292z"/>
	</g>
</g>
<g>
	<g>
		<path d="M98.79,424.914c-0.658-0.698-16.232-17.108-26.611-17.108c-10.379,0-25.953,16.41-26.612,17.108
			c-8.427,8.948-18.472,23.357-18.472,41.19c0,25.307,20.225,45.896,45.084,45.896c24.859,0,45.084-20.589,45.084-45.896
			C117.262,448.271,107.217,433.862,98.79,424.914z M72.178,491.962c-13.811,0-25.047-11.601-25.047-25.859
			c0-17.499,17.648-33.176,25.047-37.531c7.398,4.356,25.047,20.032,25.047,37.531C97.225,480.361,85.989,491.962,72.178,491.962z"
			/>
	</g>
</g>
<g>
	<g>
		<path d="M461.646,23.345C446.614,8.29,426.629,0,405.371,0c-21.26,0-41.246,8.292-56.281,23.352l-55.794,55.919
			c-13.283-9.654-32.032-8.501-44.003,3.469c-13.254,13.254-13.254,34.817-0.001,48.069l10.783,10.783L121.424,280.537
			c-0.179,0.18-0.352,0.365-0.529,0.547c-0.057,0.055-0.119,0.102-0.175,0.158c-0.115,0.115-0.215,0.238-0.324,0.358
			c-13.507,14.209-19.026,33.903-15.055,52.902L90.278,349.59c-12.638,12.662-12.639,33.264,0,45.927
			c6.13,6.137,14.281,9.518,22.951,9.518c8.668,0,16.817-3.381,22.947-9.52l15.05-15.076c19.45,4.074,39.63-1.838,53.889-16.122
			l138.698-138.986l10.576,10.576c6.627,6.626,15.33,9.94,24.035,9.94c8.702,0,17.406-3.313,24.032-9.938
			c6.42-6.42,9.956-14.956,9.956-24.034c0-7.282-2.279-14.211-6.492-19.982l55.725-55.849
			C492.658,104.973,492.661,54.419,461.646,23.345z M190.931,350.162c-10.415,10.433-25.613,14.108-39.664,9.589
			c-3.579-1.15-7.502-0.201-10.158,2.46l-19.116,19.149c-2.342,2.346-5.457,3.639-8.767,3.639c-3.312,0-6.427-1.292-8.768-3.637
			c-4.847-4.857-4.846-12.759,0.001-17.616l19.117-19.149c2.65-2.654,3.595-6.565,2.451-10.136
			c-3.351-10.453-2.185-21.535,2.892-30.825l26.448,26.493c1.958,1.961,4.523,2.94,7.09,2.94c2.561,0,5.123-0.976,7.078-2.928
			c3.916-3.909,3.921-10.252,0.012-14.168l-27.594-27.641l20.737-20.78l27.576,27.622c1.958,1.961,4.523,2.94,7.09,2.94
			c2.561,0,5.123-0.977,7.078-2.928c3.916-3.909,3.921-10.253,0.012-14.168l-27.603-27.649l20.974-21.018l27.581,27.629
			c1.957,1.961,4.523,2.94,7.09,2.94c2.561,0,5.122-0.976,7.078-2.928c3.916-3.909,3.921-10.252,0.012-14.168l-27.608-27.655
			l20.981-21.025l27.591,27.636c1.957,1.96,4.523,2.94,7.09,2.94c2.562,0,5.122-0.976,7.078-2.928
			c3.915-3.909,3.921-10.252,0.011-14.168l-27.617-27.662l27.139-27.196l55.399,55.399L190.931,350.162z M388.284,221.738
			c-5.438,5.439-14.29,5.438-19.729-0.001L263.461,116.642c-2.635-2.635-4.087-6.138-4.086-9.865c0-3.727,1.452-7.231,4.087-9.866
			c5.439-5.44,14.291-5.44,19.731,0l105.091,105.098c2.635,2.635,4.087,6.138,4.087,9.865S390.92,219.103,388.284,221.738z
			 M392.042,177.427l-84.28-84.285l55.51-55.635c11.246-11.265,26.198-17.469,42.098-17.469c15.901,0,30.85,6.203,42.095,17.464
			c23.222,23.266,23.22,61.12-0.007,84.385L392.042,177.427z"/>
	</g>
</g>
<g>
</g>
<g>
</g>
<g>
</g>
<g>
</g>
<g>
</g>
<g>
</g>
<g>
</g>
<g>
</g>
<g>
</g>
<g>
</g>
<g>
</g>
<g>
</g>
<g>
</g>
<g>
</g>
<g>
</g>
</svg>
