<svg id="Capa_1" enable-background="new 0 0 512 512" height="512" viewBox="0 0 512 512" width="512" xmlns="http://www.w3.org/2000/svg"><g><path d="m412.6 222.866c0-13.27-10.796-24.066-24.067-24.066s-24.066 10.796-24.066 24.066c0 13.271 10.796 24.067 24.066 24.067s24.067-10.796 24.067-24.067zm-33.133 0c0-4.999 4.067-9.066 9.066-9.066s9.067 4.067 9.067 9.066c0 5-4.067 9.067-9.067 9.067-4.999.001-9.066-4.067-9.066-9.067z"/><path d="m298.2 280.85c0 13.27 10.796 24.067 24.066 24.067s24.067-10.797 24.067-24.067c0-13.271-10.796-24.066-24.067-24.066s-24.066 10.795-24.066 24.066zm33.133 0c0 5-4.067 9.067-9.067 9.067-4.999 0-9.066-4.067-9.066-9.067 0-4.999 4.067-9.066 9.066-9.066 5-.001 9.067 4.067 9.067 9.066z"/><path d="m147.533 322.267c0-13.271-10.796-24.066-24.066-24.066s-24.067 10.795-24.067 24.066 10.796 24.066 24.067 24.066 24.066-10.796 24.066-24.066zm-33.133 0c0-4.999 4.067-9.066 9.067-9.066 4.999 0 9.066 4.067 9.066 9.066s-4.067 9.066-9.066 9.066c-5 0-9.067-4.067-9.067-9.066z"/><path d="m305.7 132.533c-22.405 0-40.633 18.229-40.633 40.634s18.228 40.633 40.633 40.633 40.633-18.228 40.633-40.633-18.228-40.634-40.633-40.634zm0 66.267c-14.134 0-25.633-11.499-25.633-25.633 0-14.135 11.499-25.634 25.633-25.634s25.633 11.499 25.633 25.634c0 14.134-11.498 25.633-25.633 25.633z"/><path d="m33.133 40.634c0 4.143 3.358 7.5 7.5 7.5s7.5-3.357 7.5-7.5v-9.067h9.067c4.142 0 7.5-3.357 7.5-7.5s-3.358-7.5-7.5-7.5h-9.067v-9.067c0-4.143-3.358-7.5-7.5-7.5s-7.5 3.357-7.5 7.5v9.066h-9.066c-4.142 0-7.5 3.357-7.5 7.5s3.358 7.5 7.5 7.5h9.066z"/><path d="m73.767 81.267h9.067v9.066c0 4.143 3.358 7.5 7.5 7.5s7.5-3.357 7.5-7.5v-9.066h9.066c4.142 0 7.5-3.357 7.5-7.5s-3.358-7.5-7.5-7.5h-9.066v-9.067c0-4.143-3.358-7.5-7.5-7.5s-7.5 3.357-7.5 7.5v9.066h-9.067c-4.142 0-7.5 3.357-7.5 7.5s3.358 7.501 7.5 7.501z"/><path d="m475.823 187.552c-12.566-28.443-30.474-53.714-53.226-75.11-1.475-1.387-3.447-2.12-5.469-2.028-2.022.089-3.922.991-5.268 2.503-1.753 1.968-4.153 3.051-6.759 3.051-5 0-9.067-4.067-9.067-9.066 0-1.932.614-3.784 1.775-5.359 1.202-1.63 1.693-3.678 1.363-5.676-.331-1.998-1.456-3.777-3.119-4.934-38.806-26.975-84.371-41.233-131.77-41.233-36.59 0-71.591 8.304-104.031 24.679-30.93 15.614-58.447 38.446-79.576 66.028-2.519 3.288-1.895 7.995 1.393 10.515 3.288 2.517 7.996 1.895 10.515-1.394 41.297-53.909 103.879-84.828 171.699-84.828 42.167 0 82.776 12.063 117.866 34.95-.737 2.324-1.116 4.761-1.116 7.25 0 13.271 10.796 24.066 24.067 24.066 4.185 0 8.259-1.101 11.838-3.13 41 40.826 63.495 94.908 63.495 153.013 0 119.186-96.964 216.15-216.15 216.15-29.372 0-57.767-5.768-84.504-17.154.59-2.772.888-5.605.888-8.479 0-22.405-18.228-40.633-40.633-40.633-8.661 0-16.872 2.676-23.733 7.645-43.4-40.801-68.167-97.842-68.167-157.528 0-37.55 9.775-74.532 28.269-106.948 2.052-3.599.8-8.179-2.798-10.231-3.597-2.053-8.178-.8-10.231 2.798-19.784 34.676-30.241 74.228-30.241 114.381 0 66.164 28.452 129.281 78.059 173.169 3.01 2.662 7.586 2.479 10.373-.416 4.884-5.074 11.442-7.869 18.467-7.869 14.134 0 25.633 11.499 25.633 25.633 0 3.381-.65 6.67-1.934 9.776-1.537 3.718.135 7.986 3.788 9.673 30.454 14.056 63.01 21.184 96.764 21.184 61.742 0 119.789-24.044 163.448-67.702 43.658-43.659 67.702-101.706 67.702-163.448 0-32.455-6.598-63.844-19.61-93.298z"/></g></svg>