<svg height="512pt" viewBox="0 -31 512 512" width="512pt" xmlns="http://www.w3.org/2000/svg"><path d="m451.800781 188.585938c-3.109375-51.296876-43.207031-92.773438-93.90625-98.023438-5.929687-23.457031-18.832031-44.714844-37.113281-60.824219-21.757812-19.175781-49.734375-29.738281-78.78125-29.738281-43.160156 0-83.039062 23.238281-104.414062 60.023438-.523438-.015626-1.050782-.023438-1.585938-.023438-38.09375 0-69.644531 28.550781-74.386719 65.375-36.320312 12.402344-61.613281 46.308594-61.613281 84.625 0 24.03125 9.574219 46.667969 26.957031 63.734375 17.25 16.9375 39.992188 26.265625 64.042969 26.265625h151v150h270v-201.214844zm-119.800781 21.414062h30v30h30v-30h30v60h-90zm-241 60c-33.636719 0-61-26.914062-61-60 0-28.058594 20.675781-52.601562 49.164062-58.359375l12.445313-2.511719-.421875-12.691406c-.03125-.859375-.113281-1.597656-.183594-2.121094.367188-24.5 20.410156-44.316406 44.996094-44.316406 2.550781 0 5.277344.40625 7.609375.808594l11.308594 1.9375 4.828125-10.40625c14.761718-31.796875 47.046875-52.339844 82.253906-52.339844 44.25 0 82.363281 33.21875 88.652344 77.269531l1.875 13.113281 13.242187-.234374c.785157-.015626 1.46875-.078126 1.996094-.144532 35.878906.359375 65.808594 26.042969 72.726563 59.996094h-178.492188v90zm331 150h-90v-60h90zm60 0h-30v-90h-150v90h-30v-210h30v90h150v-68.785156l30 30zm0 0"/></svg>